<?xml version="1.0" encoding="UTF-8"?><svg version="1.1" xmlns="http://www.w3.org/2000/svg" width="463" height="463"><path d="M0 0 C1.05 -0.01 2.09 -0.01 3.17 -0.02 C5.39 -0.03 7.6 -0.03 9.81 -0.04 C13.12 -0.05 16.43 -0.08 19.74 -0.11 C37.51 -0.2 54.69 1.41 71.92 5.89 C72.92 6.15 73.91 6.4 74.94 6.67 C120.14 18.71 163.54 45.67 192.75 82.48 C194.15 84.24 195.59 85.97 197.06 87.67 C226.8 122.28 245.93 171.96 246.12 217.57 C246.13 218.64 246.14 219.72 246.14 220.83 C246.15 223.09 246.16 225.36 246.16 227.63 C246.17 231.03 246.2 234.44 246.23 237.84 C246.3 250.93 245.55 263.37 242.92 276.2 C242.62 277.76 242.62 277.76 242.3 279.35 C241.78 281.83 241.22 284.3 240.61 286.77 C240.4 287.63 240.19 288.5 239.97 289.39 C229.87 329.7 208.59 365.35 179.92 395.2 C178.64 396.55 178.64 396.55 177.33 397.92 C171.56 403.83 165.48 409.19 158.92 414.2 C158.28 414.69 157.64 415.18 156.98 415.68 C120.16 443.57 74.28 463.32 27.54 463.37 C25.95 463.38 25.95 463.38 24.32 463.38 C22.09 463.39 19.86 463.39 17.63 463.39 C14.26 463.39 10.89 463.41 7.53 463.43 C-8.29 463.47 -22.98 462.26 -38.39 458.45 C-39.47 458.19 -40.54 457.93 -41.65 457.65 C-82.65 447.37 -118.67 426.41 -149.08 397.2 C-149.98 396.35 -150.87 395.49 -151.8 394.61 C-157.72 388.84 -163 382.72 -168.08 376.2 C-168.75 375.35 -168.75 375.35 -169.44 374.48 C-193.02 344.63 -208.38 309.66 -215.08 272.2 C-215.26 271.18 -215.45 270.15 -215.64 269.09 C-217.55 256.9 -217.48 244.7 -217.45 232.39 C-217.45 231.26 -217.45 230.12 -217.45 228.95 C-217.41 212.4 -217.02 196.36 -213.08 180.2 C-212.86 179.3 -212.65 178.4 -212.43 177.47 C-207.7 158.2 -200.46 139.66 -191.08 122.2 C-190.73 121.55 -190.39 120.89 -190.03 120.21 C-175.69 93.06 -154.43 67.91 -130.08 49.2 C-129.52 48.77 -128.96 48.34 -128.38 47.9 C-119.33 40.97 -110.01 34.8 -100.08 29.2 C-99.39 28.81 -98.7 28.41 -97.99 28 C-68.45 11.19 -34.18 0.15 0 0 Z M-26.08 15.2 C-26.92 15.36 -27.76 15.53 -28.62 15.69 C-62.76 22.43 -95.07 37.32 -122.08 59.2 C-122.94 59.86 -123.8 60.52 -124.69 61.2 C-137.82 71.43 -150.16 83.83 -160.08 97.2 C-160.74 98.07 -160.74 98.07 -161.41 98.96 C-182.13 126.42 -195.44 157.57 -202.08 191.2 C-202.25 192.04 -202.41 192.88 -202.59 193.74 C-207.73 220.61 -206.58 249.53 -201.08 276.2 C-200.92 277 -200.77 277.8 -200.61 278.62 C-192.69 318.99 -171.37 355.75 -143.08 385.2 C-142.59 385.71 -142.11 386.22 -141.6 386.74 C-134.84 393.77 -127.86 400.29 -120.08 406.2 C-119.49 406.65 -118.9 407.1 -118.3 407.56 C-101.1 420.53 -82.2 430.58 -62.08 438.2 C-61.12 438.57 -61.12 438.57 -60.14 438.94 C-49.08 443.06 -37.63 445.84 -26.08 448.2 C-25.26 448.37 -24.44 448.54 -23.6 448.71 C3.14 453.91 32.4 452.92 58.92 447.2 C60.45 446.9 61.98 446.6 63.52 446.29 C103.86 437.91 139.46 416.44 168.92 388.2 C169.87 387.31 170.82 386.41 171.79 385.49 C184.15 373.54 193.72 359.65 202.92 345.2 C203.63 344.1 204.34 343 205.07 341.86 C220.46 316.48 228.99 287.42 232.92 258.2 C233.1 256.94 233.27 255.68 233.45 254.37 C233.95 250.33 234.12 246.31 234.16 242.24 C234.17 241.5 234.18 240.76 234.19 240 C234.52 208.08 230.02 177.92 217.92 148.2 C217.38 146.75 217.38 146.75 216.82 145.26 C208.9 124.77 196.25 105.75 181.92 89.2 C181.23 88.4 180.53 87.59 179.82 86.77 C169.47 75.03 158.53 64.48 145.92 55.2 C144.9 54.45 143.87 53.69 142.82 52.91 C94.63 18.46 32.36 3.54 -26.08 15.2 Z " fill="#A1356C" transform="translate(217.078125,-0.203125)"/><path d="M0 0 C2.92 0 5.83 -0.02 8.75 -0.05 C21.01 -0.09 32.67 0.93 44.69 3.32 C45.68 3.51 46.68 3.7 47.7 3.9 C50 4.38 52.28 4.92 54.56 5.5 C55.78 5.81 55.78 5.81 57.02 6.13 C72.64 10.29 87.49 16.64 101.69 24.32 C102.28 24.64 102.88 24.95 103.5 25.28 C137.18 43.37 164.55 71.41 183.69 104.32 C184.04 104.92 184.39 105.53 184.76 106.15 C197.43 128.07 204.72 152.4 208.69 177.32 C208.94 178.85 208.94 178.85 209.21 180.41 C209.77 185.02 209.87 189.54 209.89 194.18 C209.89 195.12 209.9 196.06 209.91 197.04 C209.92 199.03 209.92 201.03 209.93 203.03 C209.94 206.01 209.97 209 210 211.99 C210.07 224.39 209.11 236.16 206.69 248.32 C206.49 249.31 206.3 250.3 206.1 251.33 C205.62 253.63 205.08 255.91 204.5 258.19 C204.19 259.41 204.19 259.41 203.87 260.65 C199.71 276.28 193.35 291.11 185.69 305.32 C185.37 305.91 185.06 306.5 184.73 307.11 C179.89 316.21 174.25 324.47 167.98 332.63 C166.86 334.09 165.75 335.56 164.65 337.04 C144.38 363.11 117.53 382.61 87.69 396.32 C87.03 396.62 86.37 396.92 85.69 397.24 C68.86 404.89 50.91 409.41 32.69 412.32 C31.15 412.57 31.15 412.57 29.59 412.84 C24.98 413.4 20.47 413.5 15.83 413.52 C14.88 413.52 13.94 413.53 12.97 413.54 C10.97 413.55 8.97 413.55 6.98 413.56 C3.99 413.57 1 413.6 -1.99 413.63 C-14.39 413.7 -26.16 412.74 -38.31 410.32 C-39.31 410.12 -40.3 409.93 -41.33 409.73 C-43.63 409.25 -45.91 408.71 -48.19 408.13 C-49.41 407.82 -49.41 407.82 -50.65 407.5 C-83.32 398.81 -113.29 381.95 -137.76 358.69 C-140.27 356.29 -140.27 356.29 -142.95 354.22 C-146.56 351.32 -149.33 347.84 -152.31 344.32 C-153.15 343.36 -153.99 342.41 -154.86 341.43 C-186.72 305.07 -203.74 257.61 -203.63 209.52 C-203.63 206.52 -203.65 203.52 -203.68 200.52 C-203.71 188.49 -202.8 177.09 -200.31 165.32 C-200.16 164.58 -200.01 163.84 -199.85 163.07 C-192.25 127 -175.33 94.5 -150.29 67.5 C-148.9 65.96 -147.57 64.37 -146.29 62.74 C-144.53 60.58 -142.81 58.86 -140.69 57.07 C-137.61 54.45 -134.64 51.76 -131.69 49 C-106.94 26.8 -76.05 12.81 -44.13 4.57 C-43.37 4.37 -42.61 4.17 -41.83 3.96 C-27.95 0.54 -14.21 -0.03 0 0 Z M-6.38 12.34 C-47.33 12.93 -90.73 30.13 -121.31 57.32 C-122.1 58 -122.89 58.68 -123.7 59.38 C-126.29 61.64 -128.81 63.96 -131.31 66.32 C-131.84 66.81 -132.37 67.31 -132.92 67.82 C-161.47 94.76 -180.48 130.96 -187.94 169.42 C-188.27 171.07 -188.61 172.71 -188.96 174.35 C-198.5 221.22 -185.81 274.18 -159.81 313.68 C-153.23 323.38 -145.88 332.31 -137.78 340.78 C-136.79 341.82 -135.8 342.86 -134.82 343.91 C-122.93 356.55 -109.41 366.75 -94.31 375.32 C-93.65 375.7 -92.99 376.08 -92.31 376.48 C-72.82 387.67 -51.31 395.53 -29.06 398.94 C-28.25 399.07 -27.45 399.19 -26.61 399.32 C-18.86 400.46 -11.15 401.07 -3.31 401.32 C-2.31 401.35 -2.31 401.35 -1.29 401.38 C44.77 402.7 93.01 387.15 127.69 356.32 C128.5 355.61 129.31 354.91 130.15 354.18 C168.42 320.5 193.55 273.78 197.44 222.5 C197.79 214.77 197.86 207.05 197.69 199.32 C197.66 198.05 197.63 196.79 197.6 195.49 C195.96 156.86 181.05 118.88 157.69 88.32 C157.02 87.42 156.35 86.53 155.65 85.6 C144.89 71.81 131.91 59.49 117.69 49.32 C117.11 48.9 116.53 48.48 115.93 48.05 C79.52 22.03 37.83 11.87 -6.38 12.34 Z " fill="#A1356C" transform="translate(228.31396484375,24.684326171875)"/><path d="M0 0 C4.62 0 9.24 0 14 0 C14 9.24 14 18.48 14 28 C18.29 28.33 22.58 28.66 27 29 C30.17 29.6 33.16 30.22 36.25 31.06 C37.05 31.28 37.84 31.49 38.66 31.71 C50.05 34.95 60.52 39.92 70 47 C69.53 52.27 68.92 57.01 67 62 C62.92 61.44 60.47 60.17 57.12 57.81 C46.63 50.94 35.22 47.45 23 45 C20.03 44.34 17.06 43.68 14 43 C14 69.07 14 95.14 14 122 C17.3 122.66 20.6 123.32 24 124 C26.66 124.84 29.22 125.69 31.81 126.69 C32.83 127.08 32.83 127.08 33.88 127.48 C51.97 134.64 65.18 144.29 73.09 162.5 C76.94 173.81 77.06 190.08 72 201 C71.67 201.74 71.34 202.48 71 203.24 C63.86 217.56 51.7 225.73 36.99 231 C29.1 233.63 22.66 234.28 14 235 C14 244.24 14 253.48 14 263 C9.05 263 4.1 263 -1 263 C-1 254.09 -1 245.18 -1 236 C-4.99 235.63 -4.99 235.63 -9.06 235.25 C-27.15 233.33 -52.55 227.45 -66 214 C-65.59 208.13 -64.23 203.44 -62 198 C-57.86 199.51 -54.16 201.57 -50.38 203.81 C-33.83 213.38 -19.48 216.84 0 219 C0 191.94 0 164.88 0 137 C-2.64 136.67 -5.28 136.34 -8 136 C-11.32 135.16 -14.52 134.02 -17.75 132.88 C-18.63 132.56 -19.51 132.25 -20.42 131.93 C-33.73 127.04 -48.15 119.07 -55 106 C-60.64 92.71 -62.57 77.34 -57.97 63.38 C-52.43 49.77 -43.11 40.5 -29.69 34.53 C-19.41 30.45 -11.28 28.94 0 28 C0 18.76 0 9.52 0 0 Z M-36.21 57.55 C-41.18 64.37 -42.64 70.73 -42.44 79.06 C-42.44 79.91 -42.45 80.76 -42.46 81.63 C-42.37 90.43 -39.72 97.93 -33.61 104.49 C-25.76 111.85 -11.92 119 -1 119 C-1 94.25 -1 69.5 -1 44 C-14.63 44 -26.4 47.94 -36.21 57.55 Z M14 140 C14 166.07 14 192.14 14 219 C28.22 216.81 39.99 213.99 49.81 203.06 C56.2 194.12 56.76 184.64 56 174 C54.18 163.47 48.59 156.17 40 150 C31.73 145.19 23.27 142.53 14 140 Z " fill="#9D3190" transform="translate(227,100)"/></svg>
