<svg xmlns="http://www.w3.org/2000/svg" viewBox="0 0 70 70" fill="none">
  <defs>
    <linearGradient id="helpGrad" x1="0%" y1="0%" x2="100%" y2="100%">
      <stop offset="0%" stop-color="#4D148C"/>
      <stop offset="100%" stop-color="#FF6600"/>
    </linearGradient>
  </defs>
  <circle cx="35" cy="35" r="30" fill="url(#helpGrad)"/>
  <circle cx="35" cy="35" r="30" fill="url(#helpGrad)"/>
  <path d="M35 22c-4.42 0-8 3.13-8 7h4c0-1.66 1.79-3 4-3s4 1.34 4 3c0 2-2 3-4 5-2 2-2 4-2 6h4c0-2 0-3 2-5 1.5-1.5 4-3 4-6 0-3.87-3.58-7-8-7z" fill="white"/>
  <circle cx="35" cy="44" r="2" fill="white"/>
</svg>
