<?xml version="1.0" encoding="UTF-8"?><svg version="1.1" xmlns="http://www.w3.org/2000/svg" width="463" height="463"><path d="M0 0 C1.02 0.25 2.05 0.49 3.1 0.75 C17.56 4.31 31.37 9.02 45 15 C45.73 15.32 46.46 15.63 47.22 15.96 C80.05 30.24 109.97 53.8 132 82 C132.79 82.97 133.58 83.94 134.39 84.95 C141.45 93.8 147.35 103.2 153 113 C153.4 113.69 153.8 114.38 154.22 115.09 C171 144.34 181.97 179.77 182.24 213.62 C182.25 214.63 182.26 215.64 182.27 216.68 C182.59 258.51 182.59 258.51 178 277 C177.76 278 177.53 278.99 177.28 280.02 C170.26 309.11 158.4 336.62 141 361 C140.27 362.02 139.54 363.05 138.79 364.1 C126.49 380.91 112.43 396.17 96 409 C95.11 409.74 94.22 410.48 93.3 411.25 C68.29 431.56 38.01 445.34 6.94 453.31 C6.05 453.54 5.17 453.77 4.26 454.01 C-13.6 458.36 -31.43 459.55 -49.75 459.44 C-50.8 459.43 -51.85 459.43 -52.94 459.43 C-68.62 459.35 -83.71 458.79 -99 455 C-100.02 454.75 -101.05 454.51 -102.1 454.25 C-116.56 450.69 -130.38 445.98 -144 440 C-144.73 439.68 -145.46 439.37 -146.22 439.04 C-179.03 424.77 -209.02 401.23 -231 373 C-231.79 372.03 -232.58 371.06 -233.39 370.06 C-240.44 361.21 -246.36 351.81 -252 342 C-252.65 340.87 -252.65 340.87 -253.31 339.73 C-264.48 320.15 -271.94 298.92 -277 277 C-277.21 276.14 -277.42 275.28 -277.64 274.4 C-284.7 244.51 -284.31 207.79 -277 178 C-276.79 177.08 -276.57 176.16 -276.35 175.21 C-264.44 124.81 -236.04 77.95 -195 46 C-194.03 45.21 -193.06 44.42 -192.06 43.61 C-183.2 36.55 -173.78 30.68 -164 25 C-163.38 24.64 -162.77 24.27 -162.14 23.9 C-142.67 12.49 -120.87 5.18 -99 0 C-98.1 -0.22 -97.19 -0.45 -96.26 -0.68 C-66.55 -7.76 -29.6 -7.39 0 0 Z M-176 47 C-177.05 47.77 -178.1 48.53 -179.18 49.32 C-186.9 55.06 -194.06 61.34 -201 68 C-201.93 68.88 -201.93 68.88 -202.87 69.77 C-235.73 101.03 -256.86 141.7 -266 186 C-266.18 186.85 -266.36 187.69 -266.54 188.56 C-277.18 241.88 -264.48 301.16 -235.14 346.52 C-230.16 353.98 -224.81 361.17 -219 368 C-218.37 368.74 -217.75 369.47 -217.11 370.23 C-214.79 372.87 -212.41 375.45 -210 378 C-209.41 378.62 -208.82 379.25 -208.21 379.89 C-197.55 391.07 -186.04 403.11 -172 410 C-170.24 397.46 -168.49 384.92 -166.73 372.39 C-165.76 365.42 -164.78 358.46 -163.8 351.49 C-163.49 349.23 -163.17 346.97 -162.86 344.72 C-162.08 339.18 -161.3 333.64 -160.52 328.11 C-159.24 318.99 -157.96 309.88 -156.83 300.75 C-156.66 299.41 -156.49 298.07 -156.32 296.73 C-156.03 294.42 -155.75 292.12 -155.49 289.82 C-153.7 275.69 -148.15 263.39 -136.95 254.34 C-127.25 247.65 -117.54 245.76 -106 245.38 C-105.03 245.34 -104.07 245.3 -103.07 245.26 C-100.72 245.16 -98.36 245.08 -96 245 C-98.5 242.99 -101.01 240.99 -103.54 239.03 C-123.54 223.23 -136.28 201.93 -139.69 176.56 C-139.82 175.04 -139.92 173.52 -140 172 C-140.08 170.59 -140.08 170.59 -140.16 169.15 C-140.87 144.39 -131.68 121.21 -115 103 C-98.56 86.35 -76.17 76.11 -52.68 75.76 C-26.01 75.67 -2.82 84.62 16.4 103.34 C21.64 108.86 25.55 114.77 29.37 121.31 C30.87 124.03 30.87 124.03 33 126 C35.31 126.29 35.31 126.29 38.01 126.21 C39.06 126.21 40.1 126.2 41.18 126.2 C42.31 126.19 43.45 126.17 44.61 126.16 C45.77 126.15 46.94 126.15 48.13 126.14 C51.86 126.13 55.59 126.1 59.31 126.06 C63.03 126.03 66.74 126.01 70.46 125.99 C72.77 125.98 75.09 125.96 77.4 125.94 C78.46 125.93 79.51 125.92 80.6 125.92 C81.52 125.91 82.45 125.9 83.4 125.89 C86.03 126 88.44 126.41 91 127 C91.29 133.05 91.29 133.05 91 135 C87.74 137.17 86.75 137.26 82.98 137.32 C81.45 137.35 81.45 137.35 79.88 137.38 C78.78 137.39 77.68 137.4 76.55 137.41 C74.86 137.44 74.86 137.44 73.13 137.47 C69.53 137.53 65.92 137.58 62.31 137.62 C59.87 137.66 57.43 137.7 54.98 137.74 C48.99 137.84 42.99 137.92 37 138 C37.21 138.89 37.42 139.77 37.63 140.68 C37.9 141.85 38.18 143.01 38.46 144.21 C38.73 145.37 39 146.52 39.28 147.71 C44.03 169.31 39.96 193.27 28.76 212.35 C21.11 223.87 12.82 233.39 1.27 241.07 C-0.17 242.03 -1.59 243.01 -3 244 C-3 244.33 -3 244.66 -3 245 C-2.12 245.02 -2.12 245.02 -1.23 245.04 C1.47 245.12 4.17 245.22 6.88 245.31 C7.79 245.34 8.71 245.36 9.66 245.38 C21.87 245.85 33.73 249.77 42.81 258.25 C56.64 273.5 57.14 294.65 59.58 314.14 C59.93 316.5 60.4 318.7 61 321 C62.17 321.02 63.34 321.04 64.55 321.06 C68.88 321.14 73.22 321.22 77.55 321.32 C79.43 321.36 81.31 321.39 83.19 321.42 C85.88 321.47 88.58 321.53 91.27 321.59 C92.12 321.6 92.96 321.61 93.83 321.62 C99.77 321.77 99.77 321.77 102 324 C102.89 331.35 101.62 339.11 100.87 346.43 C100.64 348.79 100.41 351.16 100.17 353.52 C99.81 357.22 99.43 360.91 99.06 364.6 C98.7 368.19 98.35 371.78 98 375.37 C97.88 376.47 97.77 377.58 97.65 378.72 C97.55 379.75 97.45 380.78 97.35 381.84 C97.25 382.74 97.16 383.64 97.07 384.57 C97 386.94 97.3 388.75 98 391 C133.29 357.08 157.04 317.32 167 269 C167.18 268.15 167.36 267.3 167.54 266.42 C172.6 240.9 172.1 211.46 167 186 C166.81 185.06 166.62 184.11 166.43 183.14 C159.99 152.21 147.08 122.25 128 97 C127.54 96.38 127.07 95.75 126.59 95.11 C112.75 76.7 96.01 60.03 77 47 C76.28 46.5 75.56 46 74.83 45.49 C38.31 20.47 -4.67 7.51 -48.81 7.62 C-49.66 7.63 -50.51 7.63 -51.38 7.63 C-95.3 7.78 -140.36 20.66 -176 47 Z M-112 117 C-114.95 120.63 -114.95 120.63 -116 125 C-72.11 125 -28.22 125 17 125 C14.47 118.67 10.63 114.9 6 110 C5.16 109.05 5.16 109.05 4.31 108.08 C-8.54 94.04 -28.15 88.18 -46.6 86.71 C-72.64 86.04 -95.24 97.5 -112 117 Z M-123 138 C-130.36 154.9 -130.62 175.71 -124 193 C-120.23 202.12 -115.69 210.68 -109 218 C-107.8 219.34 -107.8 219.34 -106.57 220.7 C-92.53 235.58 -74.05 243.89 -53.71 245.21 C-31.65 245.84 -11.13 238.59 5.06 223.46 C19.96 208.96 28.78 189.9 29.4 169.05 C29.53 158.55 28.43 148.95 25 139 C23.95 137.73 23.95 137.73 21.58 137.88 C20.5 137.88 19.41 137.88 18.3 137.88 C17.06 137.88 15.82 137.88 14.55 137.88 C13.16 137.88 11.78 137.88 10.39 137.89 C8.94 137.89 7.5 137.89 6.05 137.89 C2.1 137.89 -1.84 137.89 -5.78 137.9 C-9.9 137.9 -14.02 137.91 -18.14 137.91 C-25.94 137.91 -33.74 137.92 -41.54 137.93 C-50.42 137.94 -59.3 137.94 -68.18 137.95 C-86.46 137.96 -104.73 137.98 -123 138 Z M-134.75 267.78 C-141.86 276.48 -143.68 287.29 -145.14 298.12 C-145.32 299.38 -145.5 300.65 -145.68 301.95 C-146.17 305.37 -146.64 308.8 -147.11 312.23 C-147.5 315.11 -147.9 317.98 -148.3 320.85 C-149.24 327.61 -150.18 334.38 -151.1 341.15 C-152.06 348.13 -153.03 355.11 -154.01 362.08 C-154.85 368.08 -155.68 374.09 -156.51 380.1 C-157 383.68 -157.5 387.26 -158 390.84 C-158.56 394.82 -159.1 398.8 -159.64 402.79 C-159.89 404.56 -159.89 404.56 -160.15 406.37 C-160.29 407.46 -160.44 408.54 -160.58 409.66 C-160.71 410.6 -160.84 411.54 -160.98 412.51 C-161 415.31 -160.54 416.68 -159 419 C-156.64 420.62 -156.64 420.62 -153.74 421.95 C-152.11 422.75 -152.11 422.75 -150.44 423.57 C-149.26 424.12 -148.09 424.68 -146.88 425.25 C-146.28 425.53 -145.68 425.82 -145.07 426.11 C-136.43 430.21 -127.69 433.82 -118.62 436.88 C-117.63 437.21 -116.63 437.55 -115.6 437.9 C-110.8 439.44 -107.97 440.11 -103 439 C-101.28 426.74 -99.56 414.47 -97.86 402.2 C-97.07 396.51 -96.28 390.81 -95.48 385.12 C-94.71 379.62 -93.94 374.12 -93.18 368.62 C-92.89 366.53 -92.6 364.43 -92.3 362.33 C-91.89 359.4 -91.48 356.46 -91.08 353.52 C-90.95 352.65 -90.83 351.79 -90.7 350.9 C-89.87 344.68 -90.06 339.08 -92.22 333.1 C-92.46 332.43 -92.7 331.75 -92.94 331.05 C-93.33 329.99 -93.33 329.99 -93.72 328.91 C-94.27 327.37 -94.81 325.83 -95.35 324.29 C-96.21 321.89 -97.07 319.49 -97.93 317.1 C-98.76 314.77 -99.59 312.43 -100.41 310.09 C-100.8 309.03 -100.8 309.03 -101.2 307.95 C-102.75 303.52 -103.44 299.76 -103 295 C-102.34 294.34 -101.68 293.68 -101 293 C-97.38 293.38 -97.38 293.38 -94 294 C-87.61 311.62 -81.37 329.29 -75.2 347 C-74.25 349.73 -73.29 352.46 -72.34 355.19 C-67.54 368.93 -62.76 382.68 -58 396.43 C-57.42 398.11 -57.42 398.11 -56.83 399.82 C-55.03 405 -53.24 410.18 -51.46 415.37 C-47.79 425.97 -44.01 436.52 -40 447 C-17.57 447.48 9.81 443.25 30 433 C31.19 429.44 30.76 428.64 29.47 425.2 C28.93 423.73 28.93 423.73 28.37 422.22 C27.96 421.15 27.56 420.07 27.14 418.96 C26.72 417.83 26.3 416.7 25.87 415.54 C24.72 412.46 23.57 409.38 22.41 406.3 C21.2 403.08 20 399.86 18.81 396.63 C17.33 392.67 15.86 388.71 14.38 384.75 C9.62 372 4.93 359.22 0.25 346.44 C-0.8 343.57 -1.85 340.7 -2.91 337.83 C-3.58 336 -4.24 334.18 -4.91 332.35 C-6.73 327.37 -8.61 322.42 -10.55 317.48 C-10.97 316.39 -11.39 315.31 -11.83 314.19 C-12.64 312.09 -13.47 310 -14.31 307.92 C-17.68 299.21 -17.68 299.21 -16 294 C-12.69 293.31 -12.69 293.31 -9 293 C-5.85 295.22 -4.98 298.22 -3.74 301.76 C-3.38 302.77 -3.02 303.78 -2.65 304.82 C-2.21 306.09 -1.77 307.37 -1.31 308.69 C0.11 312.75 1.53 316.81 3 321 C18.18 321 33.36 321 49 321 C48.26 315.29 47.51 309.57 46.75 303.69 C46.53 301.91 46.3 300.13 46.07 298.3 C44.43 285.85 42.34 274.15 33 265 C23.36 257.67 14.17 256.7 2.41 256.73 C1.17 256.72 -0.08 256.72 -1.36 256.71 C-4.75 256.7 -8.14 256.7 -11.53 256.7 C-14.37 256.7 -17.21 256.69 -20.05 256.69 C-26.76 256.68 -33.46 256.68 -40.17 256.68 C-47.06 256.69 -53.96 256.68 -60.86 256.66 C-66.8 256.64 -72.74 256.63 -78.68 256.64 C-82.22 256.64 -85.76 256.64 -89.3 256.62 C-93.25 256.61 -97.2 256.62 -101.15 256.63 C-102.31 256.62 -103.47 256.61 -104.66 256.6 C-116.29 256.68 -126.4 259.3 -134.75 267.78 Z M8 333 C12.13 344.81 16.27 356.6 20.57 368.35 C21.07 369.71 21.57 371.06 22.06 372.42 C23.34 375.93 24.63 379.43 25.91 382.94 C27.21 386.5 28.51 390.06 29.81 393.62 C31.28 397.63 32.75 401.65 34.22 405.66 C36.82 412.77 39.42 419.88 42 427 C46.94 425.51 51.33 423.47 55.88 421.06 C56.61 420.68 57.34 420.29 58.09 419.89 C66.15 415.53 73.56 410.32 81 405 C81.99 404.34 82.98 403.68 84 403 C84.67 400.31 84.67 400.31 84.89 397.1 C85.01 395.86 85.13 394.62 85.25 393.35 C85.37 391.99 85.49 390.63 85.61 389.27 C85.73 387.88 85.86 386.48 86 385.09 C86.27 382.17 86.53 379.24 86.79 376.32 C87.12 372.58 87.46 368.85 87.81 365.11 C88.14 361.54 88.47 357.97 88.79 354.39 C88.85 353.72 88.92 353.04 88.98 352.35 C89.16 350.41 89.33 348.48 89.5 346.55 C89.59 345.45 89.69 344.35 89.79 343.22 C90.01 339.82 90 336.41 90 333 C62.94 333 35.88 333 8 333 Z M-81 368 C-82.96 376.03 -84.07 384.13 -85.16 392.32 C-85.36 393.78 -85.56 395.25 -85.76 396.72 C-86.28 400.55 -86.8 404.38 -87.31 408.21 C-87.84 412.14 -88.37 416.06 -88.9 419.98 C-89.94 427.65 -90.97 435.33 -92 443 C-79.12 446.78 -66.32 447.32 -53 447 C-55.27 439.15 -57.86 431.44 -60.53 423.72 C-60.96 422.48 -61.39 421.23 -61.83 419.94 C-62.74 417.32 -63.64 414.69 -64.55 412.07 C-65.7 408.74 -66.85 405.41 -68 402.07 C-68.9 399.47 -69.8 396.88 -70.69 394.28 C-71.32 392.46 -71.95 390.65 -72.57 388.83 C-74.99 381.86 -77.46 374.92 -80 368 C-80.33 368 -80.66 368 -81 368 Z " fill="#A1347A" transform="translate(281,4)"/></svg>
